<svg width="1052" height="276" viewBox="0 0 1052 276" fill="none" xmlns="http://www.w3.org/2000/svg">
  <title>Oiya</title>
  <path d="M398.821 113.198C398.821 175.135 349.114 225.346 287.806 225.346C256.728 225.346 228.628 212.447 208.478 191.645C205.079 188.144 201.905 184.415 198.98 180.483C193.321 172.88 188.623 164.53 185.045 155.717C181.885 147.931 179.683 139.706 178.243 131.421C176.737 122.747 176.878 113.811 175.782 105.08C174.69 96.3667 172.422 87.6249 168.784 79.6465C160.926 62.4088 145.853 51.176 128.08 46.127C123.358 44.7853 118.505 43.972 113.606 43.6758C112.311 43.6009 110.991 43.5581 109.818 43.583C109.707 43.583 108.987 43.5687 108.969 43.5684C74.8088 43.5684 47.1123 74.7436 47.1123 113.194C47.1123 151.645 74.8088 182.814 108.969 182.814C108.992 182.815 110.144 182.866 112.118 182.721L112.149 182.721C119.003 182.243 135.727 179.556 150.077 165.208C150.193 165.094 151.052 164.213 151.277 163.974C151.579 163.667 165.417 148.405 165.604 148.205C168.364 145.241 167.803 146.443 168.784 148.205C178.899 172.345 172.167 205.693 148.29 216.413C136.485 221.713 123.898 225.346 111.019 225.346C49.7036 225.346 0.000158651 175.145 7.12336e-06 113.198C1.24957e-05 51.251 49.7035 1.03899 111.019 1.04593C141.843 1.04593 169.736 13.7417 189.852 34.2373C192.12 36.5423 194.426 38.7832 196.564 41.2237C202.66 48.1744 207.836 55.9388 211.965 64.2491C217.857 76.1062 221.652 89.0308 223.193 102.219C225.079 118.347 224.707 133.529 232.635 148.205C236.314 155.02 241.111 161.216 246.806 166.407C252.423 171.528 258.786 175.606 265.935 178.475C273.083 181.343 280.741 182.82 288.427 182.82C324.068 182.82 352.958 151.659 352.958 113.201C352.958 74.7434 324.068 43.5752 288.427 43.5752C277.213 43.5752 266.559 46.7774 257.254 52.3311C246.383 58.8197 218.908 48.344 211.064 38.4063C206.646 32.8074 212.137 30.9257 217.642 26.3897C237.918 9.6814 261.21 1.04301 287.806 1.04301C349.117 1.04319 398.821 51.251 398.821 113.198ZM312.76 113.198C312.76 126.119 303.582 136.877 288.382 136.877C273.182 136.877 264.004 126.119 264.004 113.198C264.004 100.278 272.663 89.5196 288.428 89.5196C304.193 89.5197 312.763 100.278 312.763 113.198L312.76 113.198Z" fill="#FF8A50"/>
  <path d="M964.776 217.401C951.493 217.401 939.676 214.178 929.324 207.733C918.971 201.287 910.865 192.497 905.006 181.363C899.146 170.034 896.216 157.241 896.216 142.982C896.216 128.527 899.146 115.636 905.006 104.307C910.865 92.978 918.971 84.1882 929.324 77.9378C939.676 71.492 951.493 68.2691 964.776 68.2691C973.761 68.2691 981.964 69.9294 989.387 73.2499C996.809 76.3752 1002.86 80.8677 1007.55 86.7275C1012.44 92.5873 1015.37 99.2284 1016.34 106.651V178.727C1015.37 186.344 1012.44 193.083 1007.55 198.943C1002.86 204.607 996.809 209.1 989.387 212.42C981.964 215.741 973.761 217.401 964.776 217.401ZM975.616 171.988C984.015 171.988 990.754 169.253 995.833 163.784C1001.11 158.315 1003.74 151.283 1003.74 142.689C1003.74 137.024 1002.57 132.043 1000.23 127.746C997.884 123.449 994.563 120.031 990.266 117.491C986.164 114.952 981.378 113.683 975.909 113.683C970.44 113.683 965.557 114.952 961.26 117.491C957.158 120.031 953.837 123.547 951.298 128.039C948.954 132.336 947.782 137.22 947.782 142.689C947.782 148.353 948.954 153.432 951.298 157.924C953.642 162.221 956.963 165.64 961.26 168.179C965.557 170.718 970.342 171.988 975.616 171.988ZM1001.69 214.471V176.09L1009.02 140.931L1001.69 106.358V71.199H1051.79V214.471H1001.69Z" fill="#3E3453"/>
  <path d="M802.665 214.763L745.239 71.1973H799.736L834.894 189.273H813.506L848.958 71.1973H903.454L844.563 214.763H802.665ZM768.679 275.119L811.162 181.655L844.563 214.763L819.952 275.119H768.679Z" fill="#3E3453"/>
  <path d="M687.7 214.469V71.1968H738.974V214.469H687.7ZM713.19 54.4963C705.573 54.4963 699.225 51.957 694.146 46.8785C689.068 41.6047 686.528 35.0612 686.528 27.2482C686.528 19.6304 689.068 13.1846 694.146 7.91079C699.225 2.63696 705.573 4.59754e-05 713.19 4.59754e-05C721.199 4.59754e-05 727.645 2.63696 732.528 7.91079C737.606 13.1846 740.146 19.6304 740.146 27.2482C740.146 35.0612 737.606 41.6047 732.528 46.8785C727.645 51.957 721.199 54.4963 713.19 54.4963Z" fill="#3E3453"/>
  <path d="M563.607 218.278C547.59 218.278 532.843 215.543 519.365 210.074C505.888 204.605 494.071 196.987 483.914 187.221C473.952 177.454 466.139 166.028 460.474 152.941C454.81 139.659 451.978 125.4 451.978 110.164C451.978 94.9288 454.712 80.8652 460.181 67.9737C465.846 54.8867 473.659 43.4601 483.621 33.6937C493.582 23.9274 505.302 16.4073 518.779 11.1335C532.257 5.66432 547.004 2.92973 563.021 2.92973C579.038 2.92973 593.785 5.66432 607.263 11.1335C620.74 16.4073 632.46 23.9274 642.421 33.6937C652.383 43.4601 660.099 54.8867 665.568 67.9737C671.232 81.0606 674.064 95.2218 674.064 110.457C674.064 125.693 671.232 139.854 665.568 152.941C660.099 166.028 652.383 177.552 642.421 187.514C632.46 197.28 620.74 204.898 607.263 210.367C593.98 215.641 579.428 218.278 563.607 218.278ZM563.021 171.399C574.741 171.399 584.898 168.86 593.492 163.782C602.086 158.703 608.727 151.574 613.415 142.393C618.103 133.213 620.447 122.47 620.447 110.164C620.447 101.179 619.08 92.9755 616.345 85.5531C613.806 78.1307 609.997 71.7825 604.919 66.5087C599.84 61.0395 593.785 56.84 586.753 53.9101C579.721 50.9802 571.811 49.5152 563.021 49.5152C551.301 49.5152 541.144 52.0545 532.55 57.133C523.956 62.0162 517.314 69.0479 512.627 78.2283C507.939 87.4087 505.595 98.054 505.595 110.164C505.595 119.54 506.864 128.037 509.404 135.654C512.138 143.077 516.045 149.523 521.123 154.992C526.202 160.266 532.257 164.368 539.289 167.297C546.321 170.032 554.231 171.399 563.021 171.399Z" fill="#3E3453"/>
</svg>
